<?xml version="1.0" standalone="no"?>
<!DOCTYPE svg PUBLIC "-//W3C//DTD SVG 20010904//EN" "http://www.w3.org/TR/2001/REC-SVG-20010904/DTD/svg10.dtd">
<svg width="100.00002384185791mm" height="100.00002384185791mm"  viewBox="0 0 100.00002384185791 100.00002384185791" xmlns="http://www.w3.org/2000/svg">
    <title>Bezier Curve : BezierCircle</title>
    <desc>This is an exported Bezier xml_path from Blender, using the ExportScript by maybites.ch and Craxic</desc>
<path style="fill:none;stroke:#000000;stroke-width:1px;stroke-linecap:butt;stroke-linejoin:miter;stroke-opacity:1" d="M0.050000011920928955,50.050011932849884 C0.050000011920928955,22.443742588162422 22.443742588162422,0.050000011920928955 50.050011932849884,0.050000011920928955 C77.65628127753735,0.050000011920928955 100.05002385377884,22.443742588162422 100.05002385377884,50.050011932849884 C100.05002385377884,77.65628127753735 77.65628127753735,100.05002385377884 50.050011932849884,100.05002385377884 C22.443742588162422,100.05002385377884 0.050000011920928955,77.65628127753735 0.050000011920928955,50.050011932849884 Z "/>
<path style="fill:none;stroke:#000000;stroke-width:1px;stroke-linecap:butt;stroke-linejoin:miter;stroke-opacity:1" d="M9.050010800361633,48.35081156715751 C12.716676205396652,48.35081156715751 16.38334533572197,48.35081156715751 20.05001074075699,48.35081156715751 C20.05001074075699,49.4836116945371 20.05001074075699,50.61641170550138 20.05001074075699,51.749211832880974 C16.38334533572197,51.749211832880974 12.716676205396652,51.749211832880974 9.050010800361633,51.749211832880974 C9.050010800361633,50.61641170550138 9.050010800361633,49.4836116945371 9.050010800361633,48.35081156715751 Z "/>
<path style="fill:none;stroke:#000000;stroke-width:1px;stroke-linecap:butt;stroke-linejoin:miter;stroke-opacity:1" d="M91.05001306533813,51.74920601211488 C87.38334766030312,51.74920659419149 83.7166785299778,51.74920729268342 80.05001312494278,51.74920787476003 C80.05001312494278,50.616407747380435 80.05001312494278,49.48360773641616 80.05001312494278,48.350807609036565 C83.7166785299778,48.35080714337528 87.38334766030312,48.35080667771399 91.05001306533813,48.3508062120527 C91.05001306533813,49.48360622301698 91.05001306533813,50.61640600115061 91.05001306533813,51.74920601211488 Z "/>
<path style="fill:none;stroke:#000000;stroke-width:1px;stroke-linecap:butt;stroke-linejoin:miter;stroke-opacity:1" d="M48.35010061878711,91.05001306533813 C48.35009957104921,87.38334766030312 48.35009852331132,83.7166785299778 48.35009747557342,80.05001312494278 C49.483377234078944,80.05001312494278 50.61665675975382,80.05001312494278 51.74993651825935,80.05001312494278 C51.749936983920634,83.7166785299778 51.74993756599724,87.38334766030312 51.74993803165853,91.05001306533813 C50.616658855229616,91.05001306533813 49.483379795216024,91.05001306533813 48.35010061878711,91.05001306533813 Z "/>
<path style="fill:none;stroke:#000000;stroke-width:1px;stroke-linecap:butt;stroke-linejoin:miter;stroke-opacity:1" d="M51.749916727654636,9.050010800361633 C51.74991824105382,12.716676205396652 51.749919870868325,16.38334533572197 51.74992138426751,20.05001074075699 C50.61664174217731,20.05001074075699 49.48336221650243,20.05001074075699 48.35008257441223,20.05001074075699 C48.35008152667433,16.38334533572197 48.35008036252111,12.716676205396652 48.350079314783216,9.050010800361633 C49.48335849121213,9.050010800361633 50.61663755122572,9.050010800361633 51.749916727654636,9.050010800361633 Z "/>
<path style="fill:none;stroke:#000000;stroke-width:1px;stroke-linecap:butt;stroke-linejoin:miter;stroke-opacity:1" d="M4.050008118152618,50.050011932849884 C4.050008118152618,49.497886133845896 4.4978848695755005,49.050011303275824 5.050010144710541,49.05001188535243 C5.602135419845581,49.05001246742904 6.050008445978165,49.49788712337613 6.050008445978165,50.050011932849884 C6.050008445978165,50.60213674232364 5.602135419845581,51.050011398270726 5.050010144710541,51.050011980347335 C4.4978848695755005,51.050012562423944 4.050008118152618,50.60213773185387 4.050008118152618,50.050011932849884 Z "/>
<path style="fill:none;stroke:#000000;stroke-width:1px;stroke-linecap:butt;stroke-linejoin:miter;stroke-opacity:1" d="M50.050008207559586,4.050008118152618 C50.60213458864018,4.050008118152618 51.050010699778795,4.4978848695755005 51.05001023411751,5.050010144710541 C51.05000976845622,5.602135419845581 50.60213354090229,6.050008445978165 50.050008207559586,6.050008445978165 C49.49788392195478,6.050008445978165 49.05001048836857,5.602135419845581 49.05000990629196,5.050010144710541 C49.05000932421535,4.4978848695755005 49.497882874216884,4.050008118152618 50.050008207559586,4.050008118152618 Z "/>
<path style="fill:none;stroke:#000000;stroke-width:1px;stroke-linecap:butt;stroke-linejoin:miter;stroke-opacity:1" d="M96.05001574754715,50.05000448226929 C96.05001574754715,50.602130863349885 95.60213899612427,51.0500069744885 95.05001372098923,51.05000650882721 C94.49788844585419,51.05000604316592 94.0500154197216,50.60212981561199 94.0500154197216,50.05000448226929 C94.0500154197216,49.49788019666448 94.49788844585419,49.05000676307827 95.05001372098923,49.05000618100166 C95.60213899612427,49.050005598925054 96.05001574754715,49.497879148926586 96.05001574754715,50.05000448226929 Z "/>
<path style="fill:none;stroke:#000000;stroke-width:1px;stroke-linecap:butt;stroke-linejoin:miter;stroke-opacity:1" d="M50.05002310872078,96.05001574754715 C49.49789672764018,96.05001574754715 49.05002061650157,95.60213899612427 49.05002108216286,95.05001372098923 C49.050021547824144,94.49788844585419 49.49789777537808,94.0500154197216 50.05002310872078,94.0500154197216 C50.602147394325584,94.0500154197216 51.050020827911794,94.49788844585419 51.0500214099884,95.05001372098923 C51.05002199206501,95.60213899612427 50.60214844206348,96.05001574754715 50.05002310872078,96.05001574754715 Z "/>
</svg>