<?xml version="1.0" standalone="no"?>
<!DOCTYPE svg PUBLIC "-//W3C//DTD SVG 20010904//EN" "http://www.w3.org/TR/2001/REC-SVG-20010904/DTD/svg10.dtd">
<svg width="120.00003457069397mm" height="249.60006028413773mm"  viewBox="0 0 120.00003457069397 249.60006028413773" xmlns="http://www.w3.org/2000/svg">
    <title>Bezier Curve : Nebenturm</title>
    <desc>This is an exported Bezier xml_path from Blender, using the ExportScript by maybites.ch and Craxic</desc>
<path style="fill:none;stroke:#000000;stroke-width:1px;stroke-linecap:butt;stroke-linejoin:miter;stroke-opacity:1" d="M101.06001843512058,196.34999084472656 C101.06001843512058,197.34999287128448 101.06001843512058,198.3499874472618 101.06001843512058,199.34998947381973 C97.39335303008556,199.35001182556152 93.72669135034084,199.35002672672272 90.06002594530582,199.3500490784645 C90.06002408266068,198.15005111694336 90.06002408266068,196.9500457048416 90.06002222001553,195.75004774332047 C86.72668834030628,177.0833705663681 83.39335632324219,158.41670456528664 80.06002244353294,139.75003111362457 C66.72668506205082,139.75003111362457 53.393349543213844,139.75003111362457 40.06001216173172,139.75003111362457 C36.726678282022476,158.41670456528664 33.39334626495838,177.0833705663681 30.060012385249138,195.75004774332047 C30.06001052260399,196.9500457048416 30.06001052260399,198.15005111694336 30.06000865995884,199.3500490784645 C26.39334325492382,199.35002672672272 22.7266815751791,199.35001182556152 19.06001617014408,199.34998947381973 C19.06001617014408,198.3499874472618 19.06001617014408,197.34999287128448 19.06001617014408,196.34999084472656 C18.060017868876457,196.34999084472656 17.060015842318535,196.34999084472656 16.06001754105091,196.34999084472656 C16.06001754105091,193.48332035541534 16.06001754105091,190.61665731668472 16.06001754105091,187.7499868273735 C16.37149651348591,187.7499868273735 16.535867497324944,187.7499942779541 16.960014149546623,187.7499942779541 C16.960014149546623,187.24999326467514 16.960014149546623,186.74999970197678 16.960014149546623,186.24999868869781 C16.656063988804817,186.24999868869781 16.36001516878605,186.24999123811722 16.06001754105091,186.24999123811722 C16.06001754105091,185.0833271741867 16.06001754105091,183.6221416592598 16.06001754105091,182.7499915957451 C15.393350765109062,182.7499915957451 14.726683989167213,182.7499915957451 14.060017213225365,182.7499915957451 C14.060017213225365,183.6221416592598 14.060017213225365,185.0833271741867 14.060017213225365,186.24999123811722 C13.760015860199928,186.24999123811722 13.46001823246479,186.24999868869781 13.160016879439354,186.24999868869781 C13.160016879439354,186.74999970197678 13.160016879439354,187.24999326467514 13.160016879439354,187.7499942779541 C13.46001823246479,187.7499942779541 13.760015860199928,187.7499868273735 14.060017213225365,187.7499868273735 C14.060017213225365,190.61665731668472 14.060017213225365,193.48332035541534 14.060017213225365,196.34999084472656 C12.726683661341667,196.34999084472656 11.39335010945797,196.34999084472656 10.060016557574272,196.34999084472656 C10.060016557574272,197.34999287128448 10.060016557574272,198.3499874472618 10.060016557574272,199.34998947381973 C6.72667895257473,199.35001182556152 3.393337622284889,199.35002672672272 0.060000017285346985,199.3500490784645 C9.39333488047123,154.5500394999981 30.726677298545837,50.95001059770584 46.06001687049866,-23.25001609325409 C49.3933507502079,-32.2500194311142 52.72668323293328,-41.25000786781311 56.06001664698124,-50.25001120567322 C56.89335011690855,-50.25001120567322 57.72668358683586,-50.25001120567322 58.560017173178494,-50.25001120567322 C58.560017173178494,-16.916679859161377 58.560017173178494,16.416651487350464 58.560017173178494,49.749982833862305 C59.56001733709127,49.749982833862305 60.5600172681734,49.749982833862305 61.56001743208617,49.749982833862305 C61.56001743208617,16.416651487350464 61.56001743208617,-16.916679859161377 61.56001743208617,-50.25001120567322 C62.3933510184288,-50.25001120567322 63.22668448835611,-50.25001120567322 64.06001795828342,-50.25001120567322 C67.39335137233138,-41.250022768974304 70.72668385505676,-32.2500194311142 74.060017734766,-23.250030994415283 C89.39335730671883,50.94999569654465 110.72669972479343,154.5500394999981 120.06003458797932,199.3500490784645 C116.72669698297977,199.35002672672272 113.39335565268993,199.35001182556152 110.06001804769039,199.34998947381973 C110.06001804769039,198.3499874472618 110.06001804769039,197.34999287128448 110.06001804769039,196.34999084472656 C108.7266844958067,196.34999084472656 107.3933472186327,196.34999084472656 106.060013666749,196.34999084472656 C106.060013666749,193.48332035541534 106.060013666749,190.61665731668472 106.060013666749,187.7499868273735 C106.371492639184,187.7499868273735 106.53586362302303,187.7499942779541 106.96001027524471,187.7499942779541 C106.96001027524471,187.24999326467514 106.96001027524471,186.74999970197678 106.96001027524471,186.24999868869781 C106.6560601145029,186.24999868869781 106.36001129448414,186.24999123811722 106.060013666749,186.24999123811722 C106.060013666749,185.0833271741867 106.060013666749,183.6221416592598 106.060013666749,182.7499915957451 C105.39334689080715,182.7499915957451 104.7266801148653,182.7499915957451 104.06001333892345,182.7499915957451 C104.06001333892345,183.6221416592598 104.06001333892345,185.0833271741867 104.06001333892345,186.24999123811722 C103.76001198589802,186.24999123811722 103.46001435816288,186.24999868869781 103.16001300513744,186.24999868869781 C103.16001300513744,186.74999970197678 103.16001300513744,187.24999326467514 103.16001300513744,187.7499942779541 C103.46001435816288,187.7499942779541 103.76001198589802,187.7499868273735 104.06001333892345,187.7499868273735 C104.06001333892345,190.61665731668472 104.06001333892345,193.48332035541534 104.06001333892345,196.34999084472656 C103.06001503765583,196.34999084472656 102.0600167363882,196.34999084472656 101.06001843512058,196.34999084472656 Z "/>
</svg>