<?xml version="1.0" standalone="no"?>
<!DOCTYPE svg PUBLIC "-//W3C//DTD SVG 20010904//EN" "http://www.w3.org/TR/2001/REC-SVG-20010904/DTD/svg10.dtd">
<svg width="120.00003457069397mm" height="298.1000170111656mm"  viewBox="0 0 120.00003457069397 298.1000170111656" xmlns="http://www.w3.org/2000/svg">
    <title>Bezier Curve : Hauptturm</title>
    <desc>This is an exported Bezier xml_path from Blender, using the ExportScript by maybites.ch and Craxic</desc>
<path style="fill:none;stroke:#000000;stroke-width:1px;stroke-linecap:butt;stroke-linejoin:miter;stroke-opacity:1" d="M106.0600173920393,196.3984908014536 C106.0600173920393,193.53182031214237 106.0600173920393,190.66515727341175 106.0600173920393,187.79848678410053 C106.36001874506474,187.79848678410053 106.66001637279987,187.79849423468113 106.96001772582531,187.79849423468113 C106.96001772582531,187.29849322140217 106.96001772582531,186.7984996587038 106.96001772582531,186.29849864542484 C106.66001637279987,186.29849864542484 106.36001874506474,186.29849119484425 106.0600173920393,186.29849119484425 C106.0600173920393,185.13182713091373 106.0600173920393,183.67064161598682 106.0600173920393,182.79849155247211 C105.39335061609745,182.79849155247211 104.7266838401556,182.79849155247211 104.06001706421375,182.79849155247211 C104.06001706421375,183.67064161598682 104.06001706421375,185.13182713091373 104.06001706421375,186.29849119484425 C103.76001943647861,186.29849119484425 103.46397061645985,186.29849864542484 103.16002045571804,186.29849864542484 C103.16002045571804,186.7984996587038 103.16002045571804,187.29849322140217 103.16002045571804,187.79849423468113 C103.58416710793972,187.79849423468113 103.74853809177876,187.79848678410053 104.06001706421375,187.79848678410053 C104.06001706421375,190.66515727341175 104.06001706421375,193.53182031214237 104.06001706421375,196.3984908014536 C103.06001876294613,196.3984908014536 102.0600167363882,196.3984908014536 101.06001843512058,196.3984908014536 C101.06001843512058,197.3984928280115 101.06001843512058,198.39848740398884 101.06001843512058,199.39848943054676 C97.39335303008556,199.39851178228855 93.72669135034084,199.39852668344975 90.06002594530582,199.39854903519154 C90.06002408266068,198.1985510736704 90.06002408266068,196.99854566156864 90.06002222001553,195.7985477000475 C86.72668834030628,177.13187052309513 83.39335632324219,158.46520452201366 80.06002244353294,139.7985310703516 C73.89335383474827,139.7985347956419 67.72668615728617,139.7985347956419 61.56001743208617,139.7985385209322 C61.56001743208617,109.79853174090385 61.740017522126436,86.465192720294 61.56001743208617,49.79852004349232 C60.5600172681734,49.79851631820202 59.56001733709127,49.79851631820202 58.560017173178494,49.79851259291172 C58.38001708313823,86.46519085764885 58.560017173178494,109.7985298782587 58.560017173178494,139.7985385209322 C52.3933484479785,139.7985347956419 46.226680770516396,139.7985347956419 40.06001216173172,139.7985310703516 C36.726678282022476,158.46520452201366 33.39334626495838,177.13187052309513 30.060012385249138,195.7985477000475 C30.06001052260399,196.99854566156864 30.06001052260399,198.1985510736704 30.06000865995884,199.39854903519154 C26.39334325492382,199.39852668344975 22.7266815751791,199.39851178228855 19.06001617014408,199.39848943054676 C19.06001617014408,198.39848740398884 19.06001617014408,197.3984928280115 19.06001617014408,196.3984908014536 C18.06001414358616,196.3984908014536 17.060015842318535,196.3984908014536 16.060013815760612,196.3984908014536 C16.060013815760612,193.53182031214237 16.060013815760612,190.66515727341175 16.060013815760612,187.79848678410053 C16.36001516878605,187.79848678410053 16.660012796521187,187.79849423468113 16.960014149546623,187.79849423468113 C16.960014149546623,187.29849322140217 16.960014149546623,186.7984996587038 16.960014149546623,186.29849864542484 C16.660012796521187,186.29849864542484 16.36001516878605,186.29849119484425 16.060013815760612,186.29849119484425 C16.060013815760612,185.13182713091373 16.060013815760612,183.67064161598682 16.060013815760612,182.79849155247211 C15.393347039818764,182.79849155247211 14.726680263876915,182.79849155247211 14.060013487935066,182.79849155247211 C14.060013487935066,183.67064161598682 14.060013487935066,185.13182713091373 14.060013487935066,186.29849119484425 C13.760015860199928,186.29849119484425 13.46396704018116,186.29849864542484 13.160016879439354,186.29849864542484 C13.160016879439354,186.7984996587038 13.160016879439354,187.29849322140217 13.160016879439354,187.79849423468113 C13.584163531661034,187.79849423468113 13.748534515500069,187.79848678410053 14.060013487935066,187.79848678410053 C14.060013487935066,190.66515727341175 14.060013487935066,193.53182031214237 14.060013487935066,196.3984908014536 C12.726679936051369,196.3984908014536 11.39335010945797,196.3984908014536 10.060016557574272,196.3984908014536 C10.060016557574272,197.3984928280115 10.060016557574272,198.39848740398884 10.060016557574272,199.39848943054676 C6.72667895257473,199.39851178228855 3.393337622284889,199.39852668344975 0.060000017285346985,199.39854903519154 C4.726667448878288,176.16520984470844 39.85948723554611,0.6633044630289078 59.759230902884156,-98.70146797597408 C59.77615969884209,-98.70146797597408 59.7930884656962,-98.70146797597408 59.81001726165414,-98.70146797597408 C59.793350633000955,-89.85315845906734 59.81001729075797,-81.00206242501736 59.81001729075797,-72.15236710011959 C59.8933506377507,-71.66873501241207 59.97668396291556,-71.18510292470455 60.06001730263233,-70.70147083699703 C60.143350642349105,-71.18508802354336 60.226683967513964,-71.66870521008968 60.310017314506695,-72.15232239663601 C60.310017314506695,-81.00203262269497 60.310017285402864,-89.85175774991512 60.310017285402864,-98.70146797597408 C60.32700068014674,-98.70146797597408 60.343984103994444,-98.70146797597408 60.36096749873832,-98.70146797597408 C80.2606554031372,0.6652118116617203 100.16034592688084,100.03186924755573 120.06003458797932,199.39854903519154 C116.72669698297977,199.39852668344975 113.39335565268993,199.39851178228855 110.06001804769039,199.39848943054676 C110.06001804769039,198.39848740398884 110.06001804769039,197.3984928280115 110.06001804769039,196.3984908014536 C108.7266844958067,196.3984908014536 107.393350943923,196.3984908014536 106.0600173920393,196.3984908014536 Z "/>
</svg>